<svg width="66" height="66" viewBox="0 0 66 66" fill="none" xmlns="http://www.w3.org/2000/svg">
<path d="M62.7 11.55H3.3C1.47739 11.55 0 13.0274 0 14.85V19.8H66V14.85C66 13.0274 64.5226 11.55 62.7 11.55Z" fill="#FAFAFA"/>
<path d="M0 26.3999V51.1499C0 52.9725 1.47739 54.4499 3.3 54.4499H62.7C64.5226 54.4499 66 52.9725 66 51.1499V26.3999H0ZM18.975 47.8499C17.1554 47.8499 15.675 46.3695 15.675 44.5499C15.675 46.3695 14.1946 47.8499 12.375 47.8499C10.5554 47.8499 9.075 46.3695 9.075 44.5499C9.075 42.7303 10.5554 41.2499 12.375 41.2499C14.1946 41.2499 15.675 42.7303 15.675 44.5499C15.675 42.7303 17.1554 41.2499 18.975 41.2499C20.7946 41.2499 22.275 42.7303 22.275 44.5499C22.275 46.3695 20.7946 47.8499 18.975 47.8499Z" fill="#FAFAFA"/>
</svg>
