<svg width="45" height="44" viewBox="0 0 45 44" fill="none" xmlns="http://www.w3.org/2000/svg">
<path d="M1.41459 11.5092C1.19832 10.2844 2.14043 9.16138 3.38412 9.16138H41.6159C42.8596 9.16138 43.8017 10.2844 43.5854 11.5092L38.3607 41.096C38.192 42.0516 37.3616 42.7482 36.3912 42.7482H8.6088C7.63841 42.7482 6.80802 42.0516 6.63928 41.096L1.41459 11.5092Z" stroke="#191919" stroke-width="2"/>
<path d="M14.3447 8.77783V3.00006C14.3447 1.89549 15.2402 1.00005 16.3447 1.00005L28.6551 1.00005C29.7596 1.00005 30.6551 1.89549 30.6551 3.00005V8.77783" stroke="#191919" stroke-width="2" stroke-linecap="round"/>
<path d="M35.8446 10.3334L32.1377 42.2404M10.6377 10.3334L14.3446 43M23.2411 10.3334V42.2223" stroke="#191919" stroke-width="2"/>
</svg>
