<svg width="129" height="101" viewBox="0 0 129 101" fill="none" xmlns="http://www.w3.org/2000/svg">
<path d="M105.245 77.719C98.9316 77.719 93.7959 82.8788 93.7959 89.223C93.7959 95.5698 98.9316 100.733 105.245 100.733C111.56 100.733 116.695 95.5698 116.695 89.223C116.695 82.8788 111.56 77.719 105.245 77.719Z" fill="#191919"/>
<path d="M28.0446 77.719C21.7284 77.719 16.5928 82.8788 16.5928 89.223C16.5928 95.5698 21.7284 100.733 28.0446 100.733C34.3573 100.733 39.493 95.5698 39.493 89.223C39.4934 82.8788 34.3578 77.719 28.0446 77.719Z" fill="#191919"/>
<path d="M111.706 29.3895C111.102 27.5631 109.399 26.329 107.479 26.329H102.067V45.4288H117.002L111.706 29.3895Z" fill="#191919"/>
<path d="M126.052 52.5767H102.067V70.8485C103.101 70.6707 104.163 70.5709 105.246 70.5709C114.816 70.5709 122.717 77.8791 123.712 87.229H124.55C127.007 87.229 129.001 85.2287 129.001 82.7604V56.7772C129.001 54.8384 127.769 53.1964 126.052 52.5767Z" fill="#191919"/>
<path d="M94.7729 5.20187C94.7729 2.73356 92.7793 0.733276 90.3218 0.733276H4.4507C1.99363 0.733276 0 2.73312 0 5.20187V82.7608C0 85.2291 1.99363 87.2294 4.4507 87.2294H9.57593C10.571 77.8795 18.4721 70.5713 28.0437 70.5713C37.6118 70.5713 45.5116 77.8795 46.5067 87.2294H81.6558H86.781C87.3804 81.5999 90.4821 76.7168 94.9449 73.7164L94.7729 5.20187Z" fill="#191919"/>
</svg>
