<svg width="43" height="43" viewBox="0 0 43 43" fill="none" xmlns="http://www.w3.org/2000/svg">
<path d="M20.1611 12.749L15.9956 16.9145C14.4609 18.4491 12.9175 19.9838 11.3916 21.536C11.032 21.9043 10.7602 22.3954 10.655 22.8777C10.1025 25.4121 9.56754 27.9465 9.0326 30.4808L8.73444 31.884C8.59412 32.568 8.77828 33.252 9.24307 33.7168C9.60262 34.0763 10.1025 34.278 10.6286 34.278C10.7777 34.278 10.9268 34.2605 11.0759 34.2342L12.6193 33.9097C15.0748 33.3923 17.539 32.8661 19.9945 32.3575C20.5645 32.2347 21.0468 31.9804 21.459 31.5683C28.3518 24.6667 35.2446 17.7739 42.1374 10.8898C42.646 10.3812 42.9266 9.77611 42.9968 9.0307C43.0056 8.90793 42.9968 8.78516 42.9705 8.67116C42.9266 8.49577 42.8916 8.31161 42.8477 8.13622C42.7513 7.68897 42.646 7.18034 42.4356 6.68925C41.1464 3.74271 39.0067 1.63804 36.0777 0.454157C35.4901 0.217381 34.8675 0.138456 34.3238 0.0683004L34.1747 0.0507614C33.3855 -0.0457028 32.6664 0.217381 32.0437 0.848784C28.0975 4.81259 24.1249 8.78516 20.1611 12.749ZM33.8853 2.16421C33.9029 2.16421 33.9116 2.16421 33.9292 2.16421L34.0782 2.18174C34.5343 2.23436 34.9552 2.28698 35.2884 2.42729C37.6737 3.39193 39.4276 5.11075 40.4887 7.53112C40.6115 7.81175 40.6904 8.1713 40.7694 8.54838C40.7957 8.68869 40.8307 8.82901 40.8571 8.96932C40.822 9.12717 40.7606 9.2324 40.6378 9.34641C33.7362 16.2304 26.8434 23.132 19.9506 30.0248C19.8366 30.1388 19.7314 30.1914 19.5735 30.2265C17.1093 30.7439 14.6538 31.2613 12.1896 31.7787L10.8917 32.0506L11.1373 30.9018C11.6722 28.3762 12.2072 25.8418 12.7509 23.3162C12.7684 23.2373 12.8386 23.1145 12.9175 23.0268C14.4434 21.4834 15.9693 19.9487 17.5039 18.4228L21.6694 14.2573C25.642 10.2847 29.6146 6.31217 33.5784 2.33083C33.745 2.19051 33.8239 2.16421 33.8853 2.16421Z" fill="#191919"/>
<path d="M3.41133 9.59198H18.7228C19.3192 9.59198 19.8015 9.10966 19.8015 8.51334C19.8015 7.91701 19.3192 7.43469 18.7228 7.43469H3.41133C1.52589 7.43469 0 8.96935 0 10.846V39.5573C0 41.4427 1.53466 42.9686 3.41133 42.9686H32.1138C33.9993 42.9686 35.5252 41.434 35.5252 39.5573V24.8684C35.5252 24.2721 35.0428 23.7898 34.4465 23.7898C33.8502 23.7898 33.3679 24.2721 33.3679 24.8684V39.5573C33.3679 40.2501 32.7979 40.8201 32.1051 40.8201H3.41133C2.71854 40.8201 2.14852 40.2501 2.14852 39.5573V10.8548C2.14852 10.162 2.71854 9.59198 3.41133 9.59198Z" fill="#191919"/>
</svg>
