<svg width="36" height="30" viewBox="0 0 36 30" fill="none" xmlns="http://www.w3.org/2000/svg">
<path d="M33.0922 2.78515C31.2071 0.998312 28.7114 0.0217025 26.0479 0.0217025C23.3843 0.0217025 20.8811 1.00555 18.996 2.79238L18.0114 3.72558L17.0117 2.77791C15.1266 0.991078 12.6157 0 9.95211 0C7.29619 0 4.79291 0.983843 2.91545 2.76344C1.03036 4.55028 -0.00759016 6.92308 4.17904e-05 9.44779C4.17904e-05 11.9725 1.04562 14.3381 2.93071 16.1249L17.2635 29.7106C17.4619 29.8987 17.7291 30 17.9886 30C18.248 30 18.5152 29.906 18.7136 29.7179L33.0769 16.1538C34.962 14.367 36 11.9942 36 9.4695C36.0076 6.94478 34.9773 4.57198 33.0922 2.78515ZM31.6268 14.7721L17.9886 27.6489L4.38078 14.7504C2.88492 13.3325 2.06067 11.4517 2.06067 9.44779C2.06067 7.44394 2.87729 5.56306 4.37315 4.1524C5.86138 2.74174 7.84569 1.96045 9.95211 1.96045C12.0662 1.96045 14.0581 2.74174 15.554 4.15963L17.2788 5.79455C17.6833 6.17796 18.332 6.17796 18.7365 5.79455L20.446 4.1741C21.9419 2.75621 23.9338 1.97492 26.0403 1.97492C28.1467 1.97492 30.131 2.75621 31.6268 4.16687C33.1227 5.58476 33.9393 7.46564 33.9393 9.4695C33.947 11.4734 33.1227 13.3542 31.6268 14.7721Z" fill="#FAFAFA"/>
</svg>
