<svg width="29" height="29" viewBox="0 0 29 29" fill="none" xmlns="http://www.w3.org/2000/svg">
<g clip-path="url(#clip0_110_37)">
<path d="M26.6576 4.11919C25.1391 2.60065 23.1287 1.77067 20.983 1.77067C18.8374 1.77067 16.8209 2.60679 15.3023 4.12534L14.5092 4.91843L13.7038 4.11305C12.1853 2.5945 10.1626 1.75223 8.01698 1.75223C5.87749 1.75223 3.86095 2.58835 2.34856 4.10075C0.830009 5.6193 -0.0061143 7.63583 3.36645e-05 9.78147C3.36645e-05 11.9271 0.842305 13.9375 2.36085 15.456L13.9067 27.0019C14.0666 27.1618 14.2818 27.2478 14.4908 27.2478C14.6998 27.2478 14.915 27.1679 15.0748 27.0081L26.6453 15.4806C28.1639 13.9621 29 11.9455 29 9.79991C29.0061 7.65427 28.1761 5.63774 26.6576 4.11919Z" fill="#FE4C4C"/>
</g>
<defs>
<clipPath id="clip0_110_37">
<rect width="29" height="29" fill="white"/>
</clipPath>
</defs>
</svg>
