<svg width="120" height="100" viewBox="0 0 120 100" fill="none" xmlns="http://www.w3.org/2000/svg">
<path d="M110.307 9.28382C104.024 3.32771 95.7048 0.0723417 86.8263 0.0723417C77.9478 0.0723417 69.6035 3.35182 63.3199 9.30793L60.0382 12.4186L56.7055 9.25971C50.4219 3.30359 42.0522 0 33.1737 0C24.3206 0 15.9764 3.27948 9.71816 9.21148C3.43452 15.1676 -0.0253005 23.0769 0.000139301 31.4926C0.000139301 39.9084 3.4854 47.7936 9.76904 53.7497L57.5451 99.0354C58.2065 99.6624 59.0969 100 59.9618 100C60.8268 100 61.7172 99.6865 62.3786 99.0596L110.256 53.8462C116.54 47.89 120 39.9807 120 31.565C120.025 23.1493 116.591 15.2399 110.307 9.28382Z" fill="#191919"/>
</svg>
