<svg width="27" height="23" viewBox="0 0 27 23" fill="none" xmlns="http://www.w3.org/2000/svg">
<path d="M23.9807 2.9496C22.6716 1.69882 20.9385 1.01519 19.0888 1.01519C17.2391 1.01519 15.5007 1.70388 14.1916 2.95467L13.508 3.60791L12.8137 2.94454C11.5046 1.69375 9.76087 1 7.91119 1C6.0668 1 4.32841 1.68869 3.02462 2.93441C1.71552 4.18519 0.994729 5.84615 1.00003 7.61346C1.00003 9.38076 1.72612 11.0367 3.03522 12.2874L12.9886 21.7974C13.1264 21.9291 13.3119 22 13.4921 22C13.6722 22 13.8577 21.9342 13.9955 21.8025L23.9701 12.3077C25.2792 11.0569 26 9.39595 26 7.62865C26.0053 5.86135 25.2898 4.20039 23.9807 2.9496ZM22.9631 11.3405L13.4921 20.3542L4.04221 11.3253C3.00342 10.3328 2.43102 9.01616 2.43102 7.61346C2.43102 6.21076 2.99812 4.89414 4.03691 3.90668C5.0704 2.91922 6.44839 2.37232 7.91119 2.37232C9.37928 2.37232 10.7626 2.91922 11.8014 3.91174L12.9992 5.05619C13.2801 5.32457 13.7305 5.32457 14.0114 5.05619L15.1986 3.92187C16.2374 2.92935 17.6207 2.38245 19.0835 2.38245C20.5463 2.38245 21.9243 2.92935 22.9631 3.91681C24.0019 4.90933 24.569 6.22595 24.569 7.62865C24.5743 9.03135 24.0019 10.348 22.9631 11.3405Z" fill="#191919" stroke="#191919" stroke-width="0.1"/>
</svg>
