<svg width="61" height="61" viewBox="0 0 61 61" fill="none" xmlns="http://www.w3.org/2000/svg">
<circle cx="30.5" cy="30.5" r="30.5" fill="#191919"/>
<path d="M6.36 42V18.984L5.52 14.784L6.36 12.264H20.64C23.804 12.264 26.338 12.852 28.242 14.028C30.146 15.204 31.098 17.108 31.098 19.74C31.098 21.056 30.874 22.246 30.426 23.31C29.978 24.374 29.334 25.2 28.494 25.788C30.398 26.404 31.798 27.342 32.694 28.602C33.59 29.862 34.038 31.36 34.038 33.096C34.038 36.148 33.142 38.402 31.35 39.858C29.586 41.286 26.996 42 23.58 42H6.36ZM13.92 23.814H20.556C21.508 23.814 22.194 23.59 22.614 23.142C23.034 22.694 23.244 22.106 23.244 21.378C23.244 20.454 22.936 19.824 22.32 19.488C21.704 19.152 20.976 18.984 20.136 18.984H13.92V23.814ZM13.92 35.28H22.32C23.328 35.28 24.07 35.154 24.546 34.902C25.05 34.65 25.372 34.328 25.512 33.936C25.68 33.544 25.764 33.138 25.764 32.718C25.764 31.99 25.498 31.374 24.966 30.87C24.462 30.338 23.72 30.072 22.74 30.072H13.92V35.28Z" fill="#FAFAFA"/>
<path d="M8.656 48C8.4 48 8.19467 47.9787 8.04 47.936C7.88533 47.888 7.77333 47.8427 7.704 47.8C7.64 47.752 7.608 47.728 7.608 47.728V47.928H6.488V43.544L6.32 42.744L6.488 42.264H7.608V43.552L7.528 44.456L7.608 44.496C7.71467 44.3947 7.84533 44.2987 8 44.208C8.16 44.112 8.37867 44.064 8.656 44.064C9.13067 44.064 9.50133 44.216 9.768 44.52C10.04 44.824 10.176 45.304 10.176 45.96C10.176 46.4507 10.1067 46.848 9.968 47.152C9.83467 47.4507 9.65333 47.6667 9.424 47.8C9.19467 47.9333 8.93867 48 8.656 48ZM8.144 47.152C8.35733 47.152 8.52267 47.0987 8.64 46.992C8.76267 46.8853 8.848 46.7467 8.896 46.576C8.94933 46.4053 8.976 46.2213 8.976 46.024C8.976 45.832 8.95467 45.656 8.912 45.496C8.87467 45.3307 8.80267 45.2 8.696 45.104C8.58933 45.0027 8.432 44.952 8.224 44.952L7.608 45.12V47.048C7.608 47.048 7.664 47.0667 7.776 47.104C7.888 47.136 8.01067 47.152 8.144 47.152ZM10.9021 48V45.496L10.7341 44.696L10.9021 44.216H11.6701L11.8301 44.4C11.8301 44.4 11.8647 44.3787 11.9341 44.336C12.0087 44.288 12.1127 44.2427 12.2461 44.2C12.3794 44.1573 12.5421 44.136 12.7341 44.136C12.8407 44.136 12.9474 44.144 13.0541 44.16C13.1607 44.176 13.2434 44.1973 13.3021 44.224L13.8221 44.744L13.3821 45.528L12.2861 44.976L12.0061 45.088V48H10.9021ZM15.2622 48.08C14.9049 48.08 14.6009 47.9893 14.3502 47.808C14.1049 47.6213 13.9822 47.3333 13.9822 46.944C13.9822 46.5333 14.1129 46.2213 14.3742 46.008C14.6355 45.7893 14.9849 45.68 15.4222 45.68C15.7422 45.68 15.9849 45.7067 16.1502 45.76C16.3209 45.8133 16.4329 45.8533 16.4862 45.88L16.5422 45.832C16.5422 45.672 16.5289 45.5307 16.5022 45.408C16.4755 45.2853 16.4142 45.192 16.3182 45.128C16.2222 45.0587 16.0729 45.024 15.8702 45.024C15.5075 45.024 15.1822 45.0533 14.8942 45.112C14.6115 45.1707 14.3875 45.224 14.2222 45.272V44.392C14.3875 44.3333 14.6382 44.28 14.9742 44.232C15.3102 44.1787 15.6729 44.152 16.0622 44.152C16.3929 44.152 16.6622 44.1973 16.8702 44.288C17.0835 44.3733 17.2462 44.4907 17.3582 44.64C17.4755 44.7893 17.5555 44.9547 17.5982 45.136C17.6462 45.312 17.6702 45.488 17.6702 45.664V46.728L17.8302 47.536L17.6702 48.008H16.6222V47.616L16.5422 47.576C16.4995 47.6293 16.4249 47.696 16.3182 47.776C16.2169 47.856 16.0782 47.928 15.9022 47.992C15.7315 48.0507 15.5182 48.08 15.2622 48.08ZM15.7022 47.192C15.9315 47.192 16.1102 47.1707 16.2382 47.128C16.3715 47.0853 16.4729 47.0427 16.5422 47V46.848C16.5422 46.7467 16.4809 46.6453 16.3582 46.544C16.2409 46.4427 16.0462 46.392 15.7742 46.392C15.5715 46.392 15.4222 46.432 15.3262 46.512C15.2302 46.592 15.1822 46.6933 15.1822 46.816C15.1822 46.944 15.2275 47.04 15.3182 47.104C15.4089 47.1627 15.5369 47.192 15.7022 47.192ZM18.5972 48V45.592L18.4372 44.712L18.6852 44.224H19.5572V44.568L19.6292 44.616C19.6879 44.5627 19.7679 44.5013 19.8692 44.432C19.9759 44.3573 20.1039 44.2907 20.2532 44.232C20.4025 44.1733 20.5705 44.144 20.7572 44.144C21.2372 44.144 21.5972 44.28 21.8372 44.552C22.0772 44.824 22.1972 45.2053 22.1972 45.696V46.712L22.3652 47.512L22.1972 48H21.0772V45.664C21.0772 45.4613 21.0319 45.3067 20.9412 45.2C20.8559 45.088 20.7199 45.032 20.5332 45.032L19.7172 45.184V48H18.5972ZM24.4163 48.08C24.1656 48.08 23.9229 48.016 23.6883 47.888C23.4589 47.76 23.2696 47.5573 23.1203 47.28C22.9709 47.0027 22.8963 46.64 22.8963 46.192C22.8963 45.696 22.9763 45.2987 23.1363 45C23.2963 44.7013 23.4989 44.4853 23.7443 44.352C23.9949 44.2133 24.2456 44.144 24.4963 44.144C24.7629 44.144 24.9709 44.168 25.1203 44.216C25.2696 44.2587 25.3816 44.2987 25.4563 44.336L25.3763 42.824L25.4563 42.344H26.5843V46.72L26.7443 47.52L26.5843 48.008H25.5363V47.616L25.4563 47.576C25.4563 47.576 25.4163 47.6187 25.3363 47.704C25.2563 47.784 25.1389 47.8667 24.9843 47.952C24.8296 48.0373 24.6403 48.08 24.4163 48.08ZM24.8563 47.192L25.4563 47.08V45.432C25.4563 45.3093 25.4056 45.2133 25.3043 45.144C25.2029 45.0693 25.0536 45.032 24.8563 45.032C24.6536 45.032 24.4963 45.0827 24.3843 45.184C24.2776 45.28 24.2029 45.4107 24.1603 45.576C24.1176 45.736 24.0963 45.9147 24.0963 46.112C24.0963 46.4053 24.1549 46.6587 24.2723 46.872C24.3896 47.0853 24.5843 47.192 24.8563 47.192ZM29.3825 44.712L29.6305 44.224H30.5025V44.568L30.5745 44.616C30.6332 44.5627 30.7132 44.5013 30.8145 44.432C30.9212 44.3573 31.0492 44.2907 31.1985 44.232C31.3478 44.1733 31.5158 44.144 31.7025 44.144C32.2572 44.144 32.6545 44.328 32.8945 44.696C32.9852 44.5627 33.1265 44.4373 33.3185 44.32C33.5158 44.1973 33.7878 44.136 34.1345 44.136C34.6145 44.136 34.9745 44.272 35.2145 44.544C35.4545 44.816 35.5745 45.1973 35.5745 45.688V46.712L35.7425 47.512L35.5745 48H34.4625V45.656C34.4625 45.4533 34.4065 45.2987 34.2945 45.192C34.1878 45.08 34.0332 45.024 33.8305 45.024C33.6225 45.024 33.4545 45.0827 33.3265 45.2C33.2038 45.3173 33.1425 45.472 33.1425 45.664V45.696V48H32.0225V45.664C32.0225 45.4613 31.9772 45.3067 31.8865 45.2C31.8012 45.088 31.6652 45.032 31.4785 45.032L30.6625 45.184V48H29.5425V45.592L29.3825 44.712ZM37.5513 48.08C37.1939 48.08 36.8899 47.9893 36.6393 47.808C36.3939 47.6213 36.2713 47.3333 36.2713 46.944C36.2713 46.5333 36.4019 46.2213 36.6633 46.008C36.9246 45.7893 37.2739 45.68 37.7113 45.68C38.0313 45.68 38.2739 45.7067 38.4393 45.76C38.6099 45.8133 38.7219 45.8533 38.7753 45.88L38.8313 45.832C38.8313 45.672 38.8179 45.5307 38.7913 45.408C38.7646 45.2853 38.7033 45.192 38.6073 45.128C38.5113 45.0587 38.3619 45.024 38.1593 45.024C37.7966 45.024 37.4713 45.0533 37.1833 45.112C36.9006 45.1707 36.6766 45.224 36.5113 45.272V44.392C36.6766 44.3333 36.9273 44.28 37.2633 44.232C37.5993 44.1787 37.9619 44.152 38.3513 44.152C38.6819 44.152 38.9513 44.1973 39.1593 44.288C39.3726 44.3733 39.5353 44.4907 39.6473 44.64C39.7646 44.7893 39.8446 44.9547 39.8873 45.136C39.9353 45.312 39.9593 45.488 39.9593 45.664V46.728L40.1193 47.536L39.9593 48.008H38.9113V47.616L38.8313 47.576C38.7886 47.6293 38.7139 47.696 38.6073 47.776C38.5059 47.856 38.3673 47.928 38.1913 47.992C38.0206 48.0507 37.8073 48.08 37.5513 48.08ZM37.9913 47.192C38.2206 47.192 38.3993 47.1707 38.5273 47.128C38.6606 47.0853 38.7619 47.0427 38.8313 47V46.848C38.8313 46.7467 38.7699 46.6453 38.6473 46.544C38.5299 46.4427 38.3353 46.392 38.0633 46.392C37.8606 46.392 37.7113 46.432 37.6153 46.512C37.5193 46.592 37.4713 46.6933 37.4713 46.816C37.4713 46.944 37.5166 47.04 37.6073 47.104C37.6979 47.1627 37.8259 47.192 37.9913 47.192ZM40.8943 48V45.496L40.7263 44.696L40.8943 44.216H41.6623L41.8223 44.4C41.8223 44.4 41.8569 44.3787 41.9263 44.336C42.0009 44.288 42.1049 44.2427 42.2383 44.2C42.3716 44.1573 42.5343 44.136 42.7263 44.136C42.8329 44.136 42.9396 44.144 43.0463 44.16C43.1529 44.176 43.2356 44.1973 43.2943 44.224L43.8143 44.744L43.3743 45.528L42.2783 44.976L41.9983 45.088V48H40.8943ZM44.3005 48V43.616L44.1325 42.816L44.3005 42.336H45.4205V43.616L45.3325 45.768H45.8205L46.4365 44.224H47.7405V44.704L46.8525 46L47.4445 46.72L48.1965 47.528V48H46.9725L46.0685 46.52L45.4205 46.6V48H44.3005ZM50.3134 48.08C49.9668 48.08 49.6574 48.0187 49.3854 47.896C49.1134 47.7733 48.9001 47.568 48.7454 47.28C48.5908 46.992 48.5134 46.6027 48.5134 46.112C48.5134 45.6373 48.5961 45.256 48.7614 44.968C48.9268 44.68 49.1454 44.472 49.4174 44.344C49.6894 44.2107 49.9881 44.144 50.3134 44.144C50.6708 44.144 50.9508 44.184 51.1534 44.264C51.3614 44.344 51.5188 44.4213 51.6254 44.496L52.0254 45.768L51.8654 46.264H49.6254C49.6574 46.5467 49.7588 46.7733 49.9294 46.944C50.1001 47.1147 50.3614 47.2 50.7134 47.2C51.0014 47.2 51.2334 47.1653 51.4094 47.096C51.5908 47.0267 51.7161 46.9733 51.7854 46.936V47.768C51.6254 47.8533 51.4201 47.928 51.1694 47.992C50.9241 48.0507 50.6388 48.08 50.3134 48.08ZM49.6174 45.752L50.8174 45.592L50.6974 45C50.6601 44.9787 50.6068 44.9627 50.5374 44.952C50.4734 44.9413 50.4148 44.936 50.3614 44.936C50.1214 44.936 49.9374 45.0213 49.8094 45.192C49.6814 45.3573 49.6174 45.544 49.6174 45.752ZM53.8271 48.08C53.4645 48.08 53.2005 48 53.0351 47.84C52.8698 47.68 52.7871 47.4373 52.7871 47.112V44.968H52.2831V44.448L52.7071 44.056L53.2751 43.064H53.8991V44.224H54.9391V45.024H53.8991V47.216L54.9391 47.208V47.84C54.9391 47.84 54.8965 47.8613 54.8111 47.904C54.7258 47.9413 54.6005 47.9787 54.4351 48.016C54.2751 48.0587 54.0725 48.08 53.8271 48.08Z" fill="#FAFAFA"/>
</svg>
