<svg width="100" height="100" viewBox="0 0 100 100" fill="none" xmlns="http://www.w3.org/2000/svg">
<path d="M95 17.5H5C2.23848 17.5 0 19.7385 0 22.5V30H100V22.5C100 19.7385 97.7615 17.5 95 17.5Z" fill="#191919"/>
<path d="M0 40V77.5C0 80.2615 2.23848 82.5 5 82.5H95C97.7615 82.5 100 80.2615 100 77.5V40H0ZM28.75 72.5C25.993 72.5 23.75 70.257 23.75 67.5C23.75 70.257 21.507 72.5 18.75 72.5C15.993 72.5 13.75 70.257 13.75 67.5C13.75 64.743 15.993 62.5 18.75 62.5C21.507 62.5 23.75 64.743 23.75 67.5C23.75 64.743 25.993 62.5 28.75 62.5C31.507 62.5 33.75 64.743 33.75 67.5C33.75 70.257 31.507 72.5 28.75 72.5Z" fill="#191919"/>
</svg>
