<svg width="91" height="30" viewBox="0 0 91 30" fill="none" xmlns="http://www.w3.org/2000/svg">
<path d="M10.0195 15.0605L4.42383 15.0459L4.93652 12.1309L10.1367 12.1455C10.9473 12.1455 11.6895 12.0088 12.3633 11.7354C13.0469 11.4521 13.6084 11.0322 14.0479 10.4756C14.4971 9.91895 14.7754 9.21094 14.8828 8.35156C14.9902 7.62891 14.9365 6.99414 14.7217 6.44727C14.5068 5.89062 14.1553 5.45605 13.667 5.14355C13.1787 4.82129 12.5635 4.64551 11.8213 4.61621L7.35352 4.60156L4.16016 23H0.556641L4.2627 1.67188L11.9238 1.68652C13.2422 1.71582 14.4189 1.99902 15.4541 2.53613C16.4893 3.06348 17.2803 3.81543 17.8271 4.79199C18.3838 5.76855 18.6035 6.94531 18.4863 8.32227C18.3594 9.85547 17.8906 11.125 17.0801 12.1309C16.2793 13.127 15.2588 13.8643 14.0186 14.3428C12.7783 14.8213 11.4453 15.0605 10.0195 15.0605ZM27.8906 19.8213L29.0918 12.2188C29.1504 11.7109 29.1162 11.252 28.9893 10.8418C28.8623 10.4316 28.6279 10.1094 28.2861 9.875C27.9541 9.63086 27.5146 9.50391 26.9678 9.49414C26.4795 9.48438 26.0205 9.56738 25.5908 9.74316C25.1611 9.90918 24.7949 10.1582 24.4922 10.4902C24.1992 10.8223 24.0039 11.2275 23.9062 11.7061L20.4639 11.7207C20.5225 10.8906 20.7666 10.168 21.1963 9.55273C21.6357 8.92773 22.1875 8.41504 22.8516 8.01465C23.5254 7.60449 24.248 7.30664 25.0195 7.12109C25.8008 6.92578 26.5625 6.83301 27.3047 6.84277C28.3789 6.8623 29.3311 7.0918 30.1611 7.53125C30.9912 7.9707 31.6211 8.59082 32.0508 9.3916C32.4902 10.1924 32.6562 11.1592 32.5488 12.292L31.3916 19.3525C31.3037 19.9092 31.2402 20.4805 31.2012 21.0664C31.1719 21.6426 31.25 22.1992 31.4355 22.7363L31.4062 23L27.9932 23.0146C27.8467 22.4971 27.7734 21.9697 27.7734 21.4326C27.7734 20.8857 27.8125 20.3486 27.8906 19.8213ZM29.4873 13.3613L29.1357 15.5439L26.8506 15.5293C26.3818 15.5293 25.8984 15.5732 25.4004 15.6611C24.9121 15.749 24.4531 15.9004 24.0234 16.1152C23.5938 16.3301 23.2324 16.623 22.9395 16.9941C22.6465 17.3555 22.4658 17.8096 22.3975 18.3564C22.3486 18.7959 22.3975 19.1768 22.5439 19.499C22.7002 19.8115 22.9346 20.0605 23.2471 20.2461C23.5596 20.4316 23.9307 20.5293 24.3604 20.5391C24.9365 20.5488 25.5029 20.4365 26.0596 20.2021C26.626 19.9678 27.1143 19.6357 27.5244 19.2061C27.9443 18.7666 28.2324 18.2637 28.3887 17.6973L29.3115 19.2793C29.0967 19.875 28.7939 20.4219 28.4033 20.9199C28.0225 21.418 27.5781 21.8477 27.0703 22.209C26.5625 22.5703 26.0059 22.8486 25.4004 23.0439C24.8047 23.2393 24.1895 23.332 23.5547 23.3223C22.6758 23.3027 21.875 23.1025 21.1523 22.7217C20.4297 22.3311 19.8584 21.7891 19.4385 21.0957C19.0186 20.4023 18.833 19.6016 18.8818 18.6934C18.9307 17.668 19.1895 16.8135 19.6582 16.1299C20.1367 15.4365 20.7471 14.8896 21.4893 14.4893C22.2412 14.0791 23.0615 13.7861 23.9502 13.6104C24.8389 13.4346 25.7178 13.3467 26.5869 13.3467L29.4873 13.3613ZM38.8916 21.0957L45.4248 7.15039H49.2334L39.9463 25.4316C39.6826 25.9785 39.3799 26.4961 39.0381 26.9844C38.7061 27.4727 38.3252 27.9023 37.8955 28.2734C37.4658 28.6445 36.9824 28.9326 36.4453 29.1377C35.918 29.3525 35.3223 29.46 34.6582 29.46C34.3555 29.4502 34.0576 29.416 33.7646 29.3574C33.4619 29.3086 33.1641 29.25 32.8711 29.1816L33.1201 26.4717C33.2275 26.4814 33.335 26.4912 33.4424 26.501C33.5498 26.5205 33.6572 26.5303 33.7646 26.5303C34.3213 26.5498 34.8096 26.4766 35.2295 26.3105C35.6494 26.1543 36.0156 25.9102 36.3281 25.5781C36.6504 25.2461 36.9336 24.8408 37.1777 24.3623L38.8916 21.0957ZM38.9209 7.15039L40.5322 19.1914L40.5029 22.7949L38.1006 23.4102L35.3174 7.15039H38.9209Z" fill="#221EE8"/>
<path d="M58.1543 15.0605L52.5586 15.0459L53.0713 12.1309L58.2715 12.1455C59.082 12.1455 59.8242 12.0088 60.498 11.7354C61.1816 11.4521 61.7432 11.0322 62.1826 10.4756C62.6318 9.91895 62.9102 9.21094 63.0176 8.35156C63.125 7.62891 63.0713 6.99414 62.8564 6.44727C62.6416 5.89062 62.29 5.45605 61.8018 5.14355C61.3135 4.82129 60.6982 4.64551 59.9561 4.61621L55.4883 4.60156L52.2949 23H48.6914L52.3975 1.67188L60.0586 1.68652C61.377 1.71582 62.5537 1.99902 63.5889 2.53613C64.624 3.06348 65.415 3.81543 65.9619 4.79199C66.5186 5.76855 66.7383 6.94531 66.6211 8.32227C66.4941 9.85547 66.0254 11.125 65.2148 12.1309C64.4141 13.127 63.3936 13.8643 62.1533 14.3428C60.9131 14.8213 59.5801 15.0605 58.1543 15.0605ZM76.0254 19.8213L77.2266 12.2188C77.2852 11.7109 77.251 11.252 77.124 10.8418C76.9971 10.4316 76.7627 10.1094 76.4209 9.875C76.0889 9.63086 75.6494 9.50391 75.1025 9.49414C74.6143 9.48438 74.1553 9.56738 73.7256 9.74316C73.2959 9.90918 72.9297 10.1582 72.627 10.4902C72.334 10.8223 72.1387 11.2275 72.041 11.7061L68.5986 11.7207C68.6572 10.8906 68.9014 10.168 69.3311 9.55273C69.7705 8.92773 70.3223 8.41504 70.9863 8.01465C71.6602 7.60449 72.3828 7.30664 73.1543 7.12109C73.9355 6.92578 74.6973 6.83301 75.4395 6.84277C76.5137 6.8623 77.4658 7.0918 78.2959 7.53125C79.126 7.9707 79.7559 8.59082 80.1855 9.3916C80.625 10.1924 80.791 11.1592 80.6836 12.292L79.5264 19.3525C79.4385 19.9092 79.375 20.4805 79.3359 21.0664C79.3066 21.6426 79.3848 22.1992 79.5703 22.7363L79.541 23L76.1279 23.0146C75.9814 22.4971 75.9082 21.9697 75.9082 21.4326C75.9082 20.8857 75.9473 20.3486 76.0254 19.8213ZM77.6221 13.3613L77.2705 15.5439L74.9854 15.5293C74.5166 15.5293 74.0332 15.5732 73.5352 15.6611C73.0469 15.749 72.5879 15.9004 72.1582 16.1152C71.7285 16.3301 71.3672 16.623 71.0742 16.9941C70.7812 17.3555 70.6006 17.8096 70.5322 18.3564C70.4834 18.7959 70.5322 19.1768 70.6787 19.499C70.835 19.8115 71.0693 20.0605 71.3818 20.2461C71.6943 20.4316 72.0654 20.5293 72.4951 20.5391C73.0713 20.5488 73.6377 20.4365 74.1943 20.2021C74.7607 19.9678 75.249 19.6357 75.6592 19.2061C76.0791 18.7666 76.3672 18.2637 76.5234 17.6973L77.4463 19.2793C77.2314 19.875 76.9287 20.4219 76.5381 20.9199C76.1572 21.418 75.7129 21.8477 75.2051 22.209C74.6973 22.5703 74.1406 22.8486 73.5352 23.0439C72.9395 23.2393 72.3242 23.332 71.6895 23.3223C70.8105 23.3027 70.0098 23.1025 69.2871 22.7217C68.5645 22.3311 67.9932 21.7891 67.5732 21.0957C67.1533 20.4023 66.9678 19.6016 67.0166 18.6934C67.0654 17.668 67.3242 16.8135 67.793 16.1299C68.2715 15.4365 68.8818 14.8896 69.624 14.4893C70.376 14.0791 71.1963 13.7861 72.085 13.6104C72.9736 13.4346 73.8525 13.3467 74.7217 13.3467L77.6221 13.3613ZM90.0586 0.5L86.1475 23H82.7051L86.6016 0.5H90.0586Z" fill="#1699E3"/>
</svg>
