<svg width="100" height="98" viewBox="0 0 100 98" fill="none" xmlns="http://www.w3.org/2000/svg">
<path d="M86.2919 36.5597L84.5889 32.5221C90.4213 19.3398 90.0345 18.948 88.9019 17.8045L81.4511 10.5251L80.7117 9.90208H79.8486C79.3934 9.90208 78.0345 9.90208 66.7086 15.0391L62.5402 13.3584C57.1528 0.0032959 56.6003 0.0032959 55.0227 0.0032959H44.5121C42.9363 0.0032959 42.3238 0.00153246 37.3273 13.406L33.1768 15.0911C25.523 11.8593 21.0342 10.2233 19.8229 10.2233L18.8292 10.2541L10.8151 18.1116C9.59903 19.2551 9.17467 19.6583 15.3415 32.6367L13.6446 36.6602C0 41.9351 0 42.4467 0 44.0607V54.3665C0 55.9832 0 56.553 13.6904 61.457L15.387 65.4735C9.55554 78.6487 9.94728 79.0443 11.0802 80.1769L18.531 87.4651L19.2721 88.1023H20.1394C20.5875 88.1023 21.9297 88.1023 33.2714 82.9547L37.4325 84.6468C42.8208 98.0002 43.3742 97.997 44.9552 97.997H55.4677C57.0752 97.997 57.6453 97.997 62.6569 84.5992L66.8285 82.9124C74.4735 86.145 78.952 87.7864 80.1557 87.7864L81.1561 87.7581L89.2316 79.8525C90.3804 78.6931 90.7827 78.2922 84.6503 65.3677L86.3354 61.3409C99.9997 56.0608 99.9997 55.5065 99.9997 53.9289V43.6346C99.9983 42.0127 99.9982 41.4464 86.2919 36.5597ZM49.9974 66.1441C40.3587 66.1441 32.5103 58.4482 32.5103 48.992C32.5103 39.5429 40.359 31.8544 49.9974 31.8544C59.6308 31.8544 67.4627 39.5447 67.4627 48.992C67.4609 58.4482 59.629 66.1441 49.9974 66.1441Z" fill="#191919"/>
</svg>
