<svg width="23" height="23" viewBox="0 0 23 23" fill="none" xmlns="http://www.w3.org/2000/svg">
<g clip-path="url(#clip0_268_7)">
<path d="M11.5003 22.2581C17.4418 22.2581 22.2583 17.4415 22.2583 11.5C22.2583 5.55849 17.4418 0.741943 11.5003 0.741943C5.55874 0.741943 0.742188 5.55849 0.742188 11.5C0.742188 17.4415 5.55874 22.2581 11.5003 22.2581Z" stroke="#191919" stroke-width="1.5"/>
<path d="M17.0648 17.8063C17.0648 14.938 14.7396 12.6128 11.8713 12.6128C9.00296 12.6128 6.67773 14.938 6.67773 17.8063" stroke="#191919" stroke-width="1.5"/>
<path d="M11.4998 12.613C13.3438 12.613 14.8386 11.1182 14.8386 9.27426C14.8386 7.43034 13.3438 5.93555 11.4998 5.93555C9.65592 5.93555 8.16113 7.43034 8.16113 9.27426C8.16113 11.1182 9.65592 12.613 11.4998 12.613Z" stroke="#191919" stroke-width="1.5"/>
</g>
<defs>
<clipPath id="clip0_268_7">
<rect width="23" height="23" fill="white"/>
</clipPath>
</defs>
</svg>
