<svg width="104" height="104" viewBox="0 0 104 104" fill="none" xmlns="http://www.w3.org/2000/svg">
<path d="M52 2C79.613 2 102 24.387 102 52C102 79.613 79.613 102 52 102C24.387 102 2 79.613 2 52C2 24.387 24.387 2 52 2Z" stroke="#191919" stroke-width="1.5" stroke-linecap="round" stroke-linejoin="round"/>
<path d="M51.6897 17C63.1152 17 72.3793 26.595 72.3793 38.4286C72.3793 50.2622 63.1152 59.8571 51.6897 59.8571C40.2641 59.8571 31 50.2622 31 38.4286C31 26.595 40.2641 17 51.6897 17Z" stroke="#191919" stroke-width="1.5" stroke-linecap="round" stroke-linejoin="round"/>
<path d="M79.9304 83.9176C72.7565 66.0908 54.6435 58.4778 39.4739 66.9083C33.1217 70.4389 28.0043 76.4527 25 83.9176" stroke="#191919" stroke-width="1.5" stroke-linecap="round" stroke-linejoin="round"/>
</svg>
